<?xml version="1.0" standalone="no"?>
<!DOCTYPE svg PUBLIC "-//W3C//DTD SVG 20010904//EN"
 "http://www.w3.org/TR/2001/REC-SVG-20010904/DTD/svg10.dtd">
<svg version="1.0" xmlns="http://www.w3.org/2000/svg"
 width="512.000000pt" height="512.000000pt" viewBox="0 0 512.000000 512.000000"
 preserveAspectRatio="xMidYMid meet">
<metadata>
Created by potrace 1.11, written by Peter Selinger 2001-2013
</metadata>
<g transform="translate(0.000000,512.000000) scale(0.100000,-0.100000)"
fill="#000000" stroke="none">
<path d="M1826 5103 c-102 -30 -189 -121 -214 -222 -11 -46 -10 -126 3 -176
23 -86 123 -185 215 -211 46 -14 144 -11 197 6 86 27 175 119 198 205 20 76
13 171 -18 235 -34 72 -120 146 -192 165 -55 14 -139 13 -189 -2z"/>
<path d="M2955 4793 c-189 -43 -329 -173 -378 -351 -20 -69 -16 -202 8 -272
38 -115 138 -231 243 -280 161 -76 354 -59 492 43 63 47 66 50 101 97 200 273
72 660 -248 748 -63 18 -172 25 -218 15z"/>
<path d="M395 3505 c-16 -9 -40 -28 -52 -43 -22 -26 -23 -33 -23 -255 0 -248
3 -267 57 -303 23 -15 51 -19 151 -22 67 -2 122 -6 122 -9 0 -2 -27 -59 -59
-126 -84 -173 -178 -421 -197 -520 -2 -12 -10 -49 -18 -82 -8 -33 -17 -78 -21
-100 -3 -22 -7 -47 -10 -55 -18 -69 -26 -418 -12 -530 11 -87 25 -164 38 -211
15 -52 18 -65 22 -81 1 -7 5 -17 8 -23 4 -5 12 -28 19 -50 7 -22 34 -83 61
-135 45 -89 63 -119 131 -216 l27 -39 1 -252 c1 -216 4 -258 19 -299 59 -154
252 -201 376 -92 55 49 75 92 82 178 3 36 6 66 8 68 1 1 44 -17 96 -41 155
-73 186 -85 319 -126 142 -43 356 -90 485 -106 28 -4 64 -8 80 -10 205 -27
676 -26 900 0 17 2 57 7 90 10 127 14 387 72 505 113 30 11 60 20 65 22 20 5
115 41 165 63 14 6 27 11 30 12 3 0 34 16 69 34 34 18 64 31 66 29 1 -2 5 -32
8 -68 6 -79 25 -126 69 -169 90 -89 231 -91 326 -6 76 68 81 91 82 387 0 228
2 256 18 278 67 91 95 138 144 235 30 61 57 119 60 130 2 11 6 25 7 30 2 6 9
26 17 45 68 179 91 550 49 810 -43 273 -119 510 -248 773 l-63 127 111 1 c131
0 171 12 203 59 23 34 23 37 20 271 l-3 237 -29 27 c-16 14 -40 31 -53 36 -15
5 -874 9 -2156 9 -1889 0 -2135 -2 -2162 -15z"/>
</g>
</svg>
